# xmcd
#
# Track frame offsets:
#	150
#	5309
#	20909
#	34553
#	53645
#	76145
#	92194
#	106696
#	125881
#	139440
#	159712
#	171064
#
# Disc length: 2588 seconds
#
# Revision: 0
# Processed by: cddbd v1.4PL0 Copyright (c) Steve Scherf et al.
# Submitted via: dBpowerAMP V4.0
#
DISCID=960a1a0c
DTITLE=R.L. Burnside - Come On In
DYEAR=1998
DGENRE=Blues
TTITLE0=Been Mistreated 
TTITLE1=Come On In (live)
TTITLE2=Let My Baby Ride 
TTITLE3=Don't Stop Honey 
TTITLE4=It's Bad You Know 
TTITLE5=Just Like a Woman 
TTITLE6=Come On In (Part 2)
TTITLE7=Rollin' Tumblin' (remix)
TTITLE8=Please Don't Stay 
TTITLE9=Shuck Dub 
TTITLE10=Come On In (Part 3)
TTITLE11=Heat
EXTD=
EXTT0=
EXTT1=
EXTT2=
EXTT3=
EXTT4=
EXTT5=
EXTT6=
EXTT7=
EXTT8=
EXTT9=
EXTT10=
EXTT11=
PLAYORDER=
